<svg xmlns="http://www.w3.org/2000/svg" width="54" height="54" viewBox="0 0 54 54">
  <g class="st_icon" fill="#4d4d4d">
    <path d="M28.787 32.362c-.069.147-.165.288-.201.443-.044.192-.234.187-.347.304.07.077.133.044.182.001.311-.274.693-.465.943-.809.01-.014.017-.038.03-.042.237-.076.365-.277.518-.449.071-.08.14-.161.24-.277.004.148-.003.244-.075.326l-.463.52c-.055.062-.114.121-.172.179-.031.031-.087.052-.095.086-.053.222-.261.314-.385.476a.361.361 0 0 1-.094.089c-.222.132-.386.335-.592.485-.172.126-.348.247-.52.373-.026.019-.042.052-.05.099.285-.16.637-.137.887-.402.225-.238.5-.429.756-.636.043-.035.102-.051.163-.08.011.043.029.085.023.088-.165.101-.211.305-.367.418-.153.111-.28.257-.431.371-.233.174-.466.352-.718.495-.248.141-.513.26-.783.351-.328.111-.672.176-1.005.275-.169.05-.328.132-.493.197-.175.069-.351.133-.538.204.006-.16.006-.16.177-.364-.134-.064-.257-.08-.392-.015-.345.164-.689.329-1.038.485-.134.06-.278.097-.418.142-.336.109-.659.258-1.015.312-.175.027-.339.127-.525.201l.028.147c-.151.078-.285.245-.475.06l-.629.407c0 .029.017.095-.004.145-.025.059-.083.147-.126.147-.208-.001-.356.116-.514.218-.028.018-.062.028-.092.041-.009.032-.028.062-.021.08.066.16-.007.254-.151.298-.114.034-.137.106-.155.211-.029.167-.083.329-.138.541-.143-.188-.203-.386-.41-.475-.039.13.047.22.068.342a69.55 69.55 0 0 0-.273.174l.065-.315a49.87 49.87 0 0 0-.278.244l.084.171-.09.162h.001c.001.231-.195.35-.336.534-.124-.032-.25.041-.334.173-.132.209-.347.252-.559.283-.139.02-.202.054-.243.206-.03.112-.166.201-.268.284-.055.045-.147.043-.207.084-.253.174-.562.271-.748.541-.036.053-.114.077-.154.103l-.187.571c.027.018.084.043.121.085.058.067.106.13-.013.21-.075.05-.108.163-.185.288l.275-.032c.102.099-.063.259.082.347a.207.207 0 0 1-.017.044c-.073.149-.073.149.072.193.065.02.065.02.143.136h-.186c.014.039.015.073.031.082.212.13.199.395.339.569.019.023-.008.109-.039.142-.109.117-.083.24-.037.367a.88.88 0 0 1 .025.558c-.1.359-.089.362-.311.608l.219.35c-.319.043-.554.225-.848.214-.097-.004-.252-.044-.243.107.009.149.14.091.246.074.122-.02.259-.035.371.103h-.183l.168.243-.125.314h-.382c-.116.167-.117.186-.009.332.156.21.122.296-.137.348-.059.012-.12.015-.194.024l-.074.23.276.143-.04.252c-.002-.069-.007-.136-.096-.15-.062.142-.062.142.102.143-.025.067.009.153-.094.197-.074.031-.144.093-.127.205.004.028-.055.078-.095.099-.098.052-.202.094-.315.144.044.205-.073.352-.16.511l.004.008c-.048-.037-.05-.159-.158-.086l-.259-.407c.049-.029.111-.047.144-.088.039-.05.083-.124.074-.18-.037-.233-.096-.462-.138-.695-.014-.08-.002-.165-.002-.248-.188-.039-.178-.038-.205.125a4.352 4.352 0 0 1-.128.53c-.073.24-.167.473-.238.713-.065.221-.056.223-.319.204.039-.216.077-.432.118-.648.024-.123.031-.231-.064-.342-.055-.065-.052-.18-.085-.309l-.334.283s-.017-.001-.029-.01c-.26-.186-.275-.453-.266-.741.005-.143-.043-.288-.063-.432a1.622 1.622 0 0 1-.018-.208c-.004-.26-.026-.285-.279-.301l-.036-.159-.276.085c-.023-.049-.049-.099-.07-.152-.019-.049-.016-.117-.049-.147-.236-.216-.127-.509-.173-.765-.011-.063.052-.139.085-.217-.034-.082-.104-.172-.099-.258.011-.186.06-.371.098-.582-.095-.036-.187-.083-.142-.262.035-.14-.032-.305-.054-.459l.091-.047-.29-.367.239-.258c-.147-.105-.04-.38-.301-.415.054-.198-.024-.326-.221-.374-.096-.023-.183-.082-.24-.109-.18-.016-.331-.029-.481-.045-.052-.005-.107-.035-.153-.024-.353.083-.605-.117-.864-.299-.014-.01-.038-.016-.042-.028-.047-.145-.112-.288-.128-.437-.012-.11.04-.227.073-.387-.051-.1-.136-.248-.2-.403-.027-.066-.039-.165-.009-.223.056-.106.035-.187.007-.294-.032-.126-.062-.265.05-.397.048-.056.037-.187.013-.273-.057-.203-.036-.376.107-.537.036-.041.04-.11.061-.166.029-.079.056-.159.089-.236.053-.125.126-.243.159-.372.017-.066-.033-.149-.047-.202l.279-.39c-.242-.304-.242-.304-.391-.244-.011-.021-.033-.042-.033-.063a3.422 3.422 0 0 0-.105-.831c-.01-.036.018-.081.024-.123.01-.067.034-.138.022-.202a1.957 1.957 0 0 1 .101-1.047c.019-.054.002-.121.005-.182.005-.112.008-.224.021-.335.021-.178.086-.353-.037-.526-.024-.034.025-.121.047-.206-.191-.125-.112-.343-.144-.545-.253-.099-.292-.266-.115-.564-.069-.054-.207.021-.233-.139.04-.005.087.001.118-.018.045-.027.107-.069.111-.11.008-.087-.063-.115-.143-.109-.066.005-.132.014-.224.024.177-.165.194-.164.599.004.039-.067.095-.134.116-.211.016-.06-.108-.132.03-.216l.135.276c.088-.054.161-.115.1-.209-.043-.065-.124-.137-.195-.146-.196-.025-.19.158-.23.274-.262.061-.284.054-.391-.139.096-.027.212.136.291-.036l-.136-.1c.15-.122.299-.234.437-.36a.457.457 0 0 0 .123-.241l-.398.214c-.028-.065-.059-.114-.071-.167-.054-.241-.053-.243-.308-.239-.055-.138-.005-.268.083-.359.135-.141.198-.254.037-.422-.05-.052-.079-.2-.044-.241.102-.12-.009-.179-.026-.269-.032-.168-.016-.345-.017-.519 0-.043.013-.086.019-.127-.196-.159-.196-.162-.144-.575-.128-.039-.128-.039-.264.071-.12-.054-.19-.112-.121-.275a.449.449 0 0 0-.069-.493.362.362 0 0 1-.085-.184c-.017-.151-.094-.235-.265-.255.032-.062.042-.124.076-.143.378-.212.553-.533.524-.961.129 0 .248.007.365-.002.153-.012.28.001.307.19.003.019.038.032.071.059.142-.088.331-.139.222-.381-.005-.012.002-.037.012-.049.174-.209.096-.445.063-.671-.017-.118.038-.175.127-.252l.16.245-.136.072.219.186-.162.075.2.115.038-.036-.084-.161.111-.17c.343.055.459.389.664.621.038.043.016.141.024.234.09.042.26.021.284.218.221-.123.399-.005.578.084.049.024.103.084.111.134.019.123.049.202.197.162.014-.004.047.037.062.063.068.111.127.227.199.333.045.066.109.119.174.189-.041.071-.105.161-.149.26-.055.126-.03.197.097.207.304.023.354.228.409.469.035.154.141.291.218.442.142-.124.142-.124.223-.479.225.025.263.251.397.371l.303-.033.237.303c.109.008.202.016.295.02.207.009.298-.11.24-.312a.616.616 0 0 1-.027-.126c-.027-.35-.079-.394-.453-.363-.003-.123-.022-.226-.197-.225-.124.001-.248-.071-.378-.112l.051-.262c.153-.007.31-.004.463-.026a.469.469 0 0 0 .334-.179c.103-.135.244-.24.366-.361.042-.041.078-.088.133-.15l-.158-.085c.057-.075.1-.183.175-.215.062-.027.142-.016.148-.102a1.106 1.106 0 0 0-.015-.304c-.011-.055-.071-.097-.098-.151-.177-.365-.245-.407-.66-.362-.114.012-.164-.024-.219-.128-.097-.183-.217-.349-.467-.356-.18-.005-.359-.045-.562-.073.027-.239-.201-.33-.349-.458-.11-.095-.189-.163-.162-.314.005-.028-.025-.063-.038-.094.07.039.135.051.183-.044l-.179.048-.524-.34c-.023-.145-.021-.293.156-.412-.199-.047-.269-.122-.233-.319.041-.226-.24-.458-.555-.489-.007-.097-.027-.199-.02-.3.024-.373.022-.743-.077-1.108-.002-.008-.01-.016-.009-.024.031-.581-.276-1.091-.345-1.651a.843.843 0 0 0-.108-.364c-.053-.085-.01-.23-.01-.303-.098-.208-.246-.385-.248-.563-.002-.186-.067-.326-.13-.478-.06-.143-.123-.166-.263-.102-.212.098-.417.21-.632.3-.115.048-.245.061-.397.096-.036.048-.096.132-.159.214-.069.09-.155.118-.273.118-.134 0-.275.029-.401.077-.17.064-.311.07-.462-.051-.089-.071-.208-.105-.332-.163 0 .15-.039.284.011.357.05.071.19.079.303.119-.014.121-.103.159-.231.19-.089-.283-.32-.218-.533-.214-.051.298.116.49.326.655.143.113.217.108.378.004.051-.033.1-.07.146-.11.167-.146.23-.138.376.041.094.114.139.215.081.379-.062.175-.044.376-.082.562a1.2 1.2 0 0 1-.138.391c-.077.125-.151.265-.365.239-.106-.013-.227.099-.355.161l-.367-.197v.179c-.172-.053-.336-.085-.476.085l.216.046c-.085.223-.033.385.162.547.197.163.202.213.045.409-.038.047-.071.098-.106.146-.178-.015-.1-.178-.168-.284a47.7 47.7 0 0 1-.214.151l-.09-.155-.152.165-.278-.107c-.014.005-.037.006-.044.018-.121.201-.286.204-.509.187-.268-.021-.516-.041-.731-.203-.047-.216.084-.347.234-.493-.049-.081-.082-.178-.149-.235-.063-.053-.145-.07-.184-.165-.032-.078-.11-.137-.191-.232l-.078.211-.092-.257-.26.035-.092.188-.056-.001c.015-.134-.223-.14-.127-.313l-.183-.134.218-.239-.487-.075v.305c-.171-.122-.075-.257-.086-.362-.07-.049-.162-.081-.194-.143-.036-.071-.018-.169-.023-.252-.132-.136-.27-.266-.391-.41-.052-.062-.068-.154-.101-.232-.084-.197-.182-.39-.25-.593-.036-.109-.027-.234-.03-.352-.003-.134.025-.262-.017-.402-.036-.119.132-.231.275-.212.033.004.089.016.095.003.088-.163.258-.117.392-.163.073-.025.142-.062.213-.091l.333-.136c.054-.022.108-.044.16-.07.038-.019.087-.073.108-.063.179.086.25-.106.381-.145.118-.035.203-.125.165-.283-.013-.054.023-.142.067-.183.234-.217.258-.527.373-.796.013-.032.004-.083.025-.1.213-.167.161-.435.252-.648.007-.016.003-.037.012-.05.216-.313.243-.69.355-1.038.008-.025.006-.056.021-.075.155-.196.118-.444.185-.664.047-.156.094-.312.139-.469.072-.25.155-.498.207-.752.03-.149.004-.309.012-.464.003-.063.03-.124.053-.212.167.099.304.086.422-.021.211.307.351.344.56.149-.035-.05-.111-.112-.099-.149.026-.087.089-.165.146-.241.086-.115.193-.217.263-.341.036-.064.061-.159-.017-.242-.048-.051-.063-.132-.098-.209.215-.139.416-.261.602-.402.116-.088.23-.191.31-.31a5.76 5.76 0 0 0 .487-.863c.032-.071.062-.152.116-.203.129-.121.141-.251.044-.408l.351-.112a6.152 6.152 0 0 0-.003-.038c-.044-.012-.095-.014-.131-.039-.079-.055-.09-.195-.01-.22.194-.062.279-.213.383-.372v.118l.191.012c.071-.303.071-.303.26-.277.04-.059.085-.113.115-.175.051-.108.118-.209.064-.346-.02-.051.029-.129.049-.201.207.084.126.275.196.399l.35-.312c-.055-.111-.147-.161-.326-.081.064-.129.184-.177.156-.313-.021-.1.101-.123.183-.153.105-.038.104-.04.216.032l.18-.536-.159-.167c.103-.112.207-.096.29-.06.033.101.046.192.091.263.021.032.105.023.21.041-.142-.24.108-.358.099-.56-.065 0-.122-.004-.179.001-.043.004-.104.042-.124.026-.133-.111-.254-.037-.412.05l.062-.206c-.085-.113-.268-.191-.155-.391.013-.024-.039-.09-.067-.132-.125-.185-.254-.368-.377-.554-.063-.096-.032-.34.029-.448.027-.048.012-.119.019-.214l-.235.078c-.067-.188-.127-.369-.193-.547-.03-.081-.075-.157-.111-.237-.066-.145-.023-.209.135-.205.033.001.067.009.108.016.028-.051.057-.095.076-.142.02-.048.031-.099.046-.152l-.136-.15c.007-.028.006-.049.016-.059.143-.147.352-.233.332-.511-.007-.103.144-.217.242-.353.173.168.161.415.342.542l.092-.085c.177.129.31.289.368.512.257.12.533.218.749.427.111.107.25.185.36.293a.285.285 0 0 1 .076.204.404.404 0 0 0 .119.332c.144.148.297.287.43.444.146.172.28.355.41.54.167.237.326.48.485.722.164.25.324.503.486.755-.04.183.097.272.172.344.014.182.008.33.038.47.058.269-.041.518-.077.815.138.093.307.181.442.305.103.096.227.207.179.407.199-.023.355.029.443.21.013.027.057.038.083.061.14.127.283.241.37.428.077.165.222.308.365.428.107.09.179.184.221.312.016.048.047.091.064.139.018.05.027.103.039.154-.057.001-.121.018-.17-.001-.071-.027-.135-.078-.198-.123-.107-.075-.211-.153-.316-.231-.041-.031-.1-.058-.115-.099-.088-.253-.321-.29-.54-.398-.017.204.119.301.209.415.045.058.126.09.196.125.334.169.627.388.865.679.03.036.083.053.124.081.042.028.095.049.121.088.105.159.226.3.38.413a.136.136 0 0 1 .051.086c.011.146.119.209.227.265.109.057.17.136.198.259.024.109.067.219.123.316a.344.344 0 0 1 .053.268c-.015.071.038.157.065.248-.123.078-.247.038-.313-.059-.12-.174-.266-.338-.308-.559-.031-.163-.133-.282-.263-.379-.028-.021-.067-.041-.077-.069-.074-.213-.273-.278-.439-.384a4.448 4.448 0 0 1-.464-.327c-.108-.091-.214-.141-.348-.093-.052-.071-.082-.142-.135-.18-.041-.029-.114-.028-.168-.017-.026.006-.065.073-.056.099.016.05.054.117.096.129.111.032.232.035.22.218l-.194.098-.084.336c.227.361.227.361.483.285.077.108.024.156-.083.174-.11.018-.233.003-.301.131.046.053.112.1.136.164.026.067.013.15.017.229.398-.107.531.004.561.287.215-.023.299.137.366.296.09.215.158.439.239.672.262.13.461.34.622.614.115.196.264.377.382.575.018.03.075.036.126.058-.015.054-.037.101-.038.149-.001.048.021.097.036.158l.183-.03c.049.115.082.213.218.271.115.049.189.203.272.318.049.068.011.123-.043.182-.033.036-.052.12-.033.16.036.074.102.063.177.022.038-.021.123-.005.158.026.23.206.366.475.484.753.011.025-.003.06-.005.091h.115l.124.388-.213.14c.047.026.062.041.077.041.102.003.256-.038.294.011.089.116.215.232.195.408a1.45 1.45 0 0 0-.011.208c.001.056-.005.13.026.165.096.107.041.209.024.333-.251-.017-.517-.162-.732.098.073.027.153.033.191.076.219.246.461.132.691.046.311-.117.615-.23.959-.142.123.032.26.016.391.01.212-.01.419.024.628.036.207.012.444-.011.622-.106.277-.147.565-.21.863-.249.015-.188.147-.271.288-.322.161-.057.332-.092.501-.118a46.88 46.88 0 0 1 1.34-.186c.099-.012.208.043.306.026.133-.022.268-.053.369-.173.104-.124.233-.141.397-.062.143.069.315.102.474.102.16 0 .267.032.337.182.036.077.098.142.158.228.1-.134.22-.184.354-.09.126.088.256.093.4.069.087-.014.179.001.287.003-.165.318-.168.321-.309.391l.044.278.322.064.214-.197.069.208c.345.058.426.02.467-.237.219.049.424.108.559.317-.131.042-.247.085-.366.114-.087.021-.172.068-.148.148.024.08.128.205.174.196.208-.041.42.118.622-.02.025-.017.081.01.122.015l.168.022c-.069-.085-.113-.123-.138-.172-.026-.051-.035-.112-.054-.181l.448.066.005.103c.041.005.083.015.126.015.188 0 .223-.03.259-.219.055-.287.168-.334.426-.178.073.044.153.081.216.137.051.045.082.113.144.201l.051-.192c.225.365.346.424.546.373a.56.56 0 0 0 .42-.404c.128.005.147.078.141.162-.006.083.022.146.106.147.041.001.099-.036.122-.073.042-.068.064-.159-.025-.207-.111-.061-.165-.133-.164-.268 0-.052-.092-.104-.161-.175.103-.013.202-.022.3-.042.015-.003.019-.056.028-.087h.001c.138-.168.171-.206.238-.181.141.052.32.017.417.179a.33.33 0 0 0 .124.125c.225.11.393.282.55.471.048.058.118.099.178.147.103.081.206.155.238.299.02.091.069.157.186.189.1.027.077.227.226.249.102.212.332.36.32.639.161.015.309.052.339.246a.113.113 0 0 0 .041.066c.28.208.336.56.53.825.061.084.087.18.203.213.096.027.142.102.114.204-.052.188.058.335.162.446.169.18.274.389.385.612.058.021.121.058.188.066.335.038.528.347.84.432.082.022.084.133.019.195-.018.018-.044.029-.067.04-.03.015-.062.026-.099.042l-.115-.147c-.025.031-.053.048-.054.068-.004.072.05.178-.068.188-.062.005-.136-.052-.193-.095a.678.678 0 0 1-.184-.182c-.117-.203-.265-.222-.45-.103-.052.125.069.13.122.188.052.057.072.142.115.233l.128.034.028.281c-.222.124-.223.124-.136.354.006.016.028.033.024.044-.101.36.205.601.273.933l-.167.03c-.041.231-.041.231.232.286.022.051.036.116.073.161.083.102.085.204.02.31-.063.104-.043.171.063.235.153.092.149.098.068.255.059.117.119.219.164.328.06.145-.004.235-.156.294l.195.06.157.739c-.085-.023-.14-.057-.179-.044a.316.316 0 0 0-.12.105c.102.137-.025.337.124.459.017.014.013.05.024.073.007.014.023.023.045.043l.156-.06.038.234c-.136.024-.267.036-.269.198.008.015.012.038.024.045.231.124.233.123.25.399.006.094.001.188.001.304l-.244-.028c-.174.17-.016.342-.019.526l-.114.186.352.198c-.122.067-.209.116-.298.163-.165.088-.165.136-.024.251.075.061.128.149.206.243l-.268.134c-.013.202-.184.379-.089.621.028.072-.053.223-.184.272-.06.022-.113.064-.187.107l.165.2c-.014.025-.021.051-.038.068a.59.59 0 0 0-.185.464c.005.132-.057.267-.088.4-.037.163-.078.324-.102.492-.024.168-.171.319-.271.49.144.109.095.259.014.397-.079.134-.217.239-.182.422.001.007-.004.018-.01.024-.067.059-.178.109-.19.177-.015.086-.001.156-.076.237-.149.161-.136.173-.074.397a2.753 2.753 0 0 0-.439.444c-.138.179-.25.405-.52.46.056.159.008.266-.107.376-.292.279-.297.291-.853.426l-.305.598c-.039-.108-.085-.178-.038-.265.131-.245.261-.491.4-.731.026-.045.092-.066.124-.087l.076-.551c-.288.148-.502.327-.637.615a20.93 20.93 0 0 1-.243.031l.072.189-.423.328.063.046c-.248.029-.256.059-.308.313a.401.401 0 0 1-.22.25.539.539 0 0 0-.282.246 1.486 1.486 0 0 1-.192.247c-.033.033-.123.056-.151.036-.062-.047-.05-.104.013-.172.157-.168.243-.377.268-.606.005-.044-.027-.092-.046-.148-.104.072-.192.134-.281.194-.092.063-.186.124-.295.198-.038-.117-.092-.189-.206-.115.078-.065.156-.131.236-.194.062-.048.129-.091.079-.185-.171.012-.337.025-.434.192l.135.187c-.222-.045-.226.168-.341.272l.186.17c-.07.077-.121.152-.19.204a.96.96 0 0 1-.262.149c-.159.056-.193.101-.155.267.027.118.064.236.079.356.029.236-.012.272-.246.252-.025-.002-.051.006-.102.012-.006.063-.025.13-.015.192.04.244.006.482-.032.722-.016.101-.002.208.009.311.022.192.121.231.298.124.132.128.324.228.209.467.238.079.247.133.082.29.004.168.031.309.006.441-.039.21-.112.413-.169.62a.207.207 0 0 0-.002.099c.031.11-.014.181-.103.24-.115.076-.188.162-.062.295.023.024.032.088.017.119a2.15 2.15 0 0 0-.196.707c-.019.182-.161.355-.169.535-.006.132-.066.177-.13.222l.6 1.29-.617-.331-.362.158c.011.101-.054.228.126.243l-.18.428c-.233.037-.276.158-.122.392-.068.309-.327.528-.35.854-.006.088-.096.164-.139.255-.139.293-.111.65-.36.903-.052.052-.026.181-.057.279-.049.154-.139.222-.261.281-.005.269-.035.521-.206.74-.327-.334-.347-.338-.098-.656l-.133-.179c.111-.502.111-.502.043-.7l.552-.797c-.081-.276-.018-.583.017-.884-.024-.013-.039-.029-.053-.028-.024.002-.069.015-.069.021.014.196-.239.214-.254.406-.021.256-.098.504-.282.702-.029.031-.07.074-.066.107.037.281-.15.478-.253.707-.011.024-.027.05-.024.074.032.257-.126.445-.232.653a.626.626 0 0 0-.084.241c-.004.088-.168.078-.101.209.022.042-.041.143-.158.09-.076-.034-.17-.028-.256-.04l.008.006c-.184-.198-.164-.419-.061-.642.061-.132.138-.257.219-.404-.005-.022-.035-.08-.027-.132.069-.428.141-.855.223-1.28.015-.079.115-.147.118-.223.013-.25.116-.473.179-.708.054-.204.047-.206.283-.251l-.087-.395c.147-.17.16-.398.114-.636l.211-.17.122.148c.028-.007.038-.006.045-.011.083-.057.098-.379.01-.446-.093-.071-.181-.137-.176-.286l.214-.076c0-.11.004-.226-.004-.342-.001-.02-.055-.036-.089-.057l.371-.3-.297-.068.143-.152c-.044-.076-.104-.096-.192-.085-.055.007-.134.011-.167-.021a6.255 6.255 0 0 1-.429-.448c-.078-.09-.135-.198-.201-.298-.075-.113-.074-.224.001-.388-.084-.163-.225-.126-.387-.078-.065-.183-.092-.374-.192-.515-.159-.225-.04-.517-.238-.736l.172-.074v-.41c-.107-.081-.107-.081-.389.003-.227-.196-.227-.196-.263-.368h.29l-.155-.429.114-.02.04-.041-.221-.114c.361-.071.477.014.536.341.145-.029.237-.105.242-.256.003-.081.04-.118.098-.167.077-.065.13-.158.212-.23-.06.233.118.491-.093.694.143.172.136.365.108.524.108.157.201.292.292.427.019.028.049.068.041.091-.064.176.062.255.169.34.228.183.466.356.64.598.02.028.049.049.078.069.012.009.033.006.062.011.063-.077-.002-.24.153-.265.003-.001.008-.016.006-.023-.073-.291.102-.529.163-.792.033-.141.034-.292.029-.438-.011-.295.129-.516.326-.713.019-.018.037-.038.058-.053.193-.128.283-.301.223-.527.113-.073.224-.125.309-.205.087-.082.149-.192.234-.267.201-.372-.144-.679-.152-1.043 0-.017-.053-.033-.097-.058-.026.112-.05.208-.069.304-.02.097-.035.195-.054.303l-.181.26-.224-.163c.014-.134.035-.266.04-.399.002-.056-.029-.114-.043-.171l-.195-.788.275-.168c-.141-.166-.248.055-.372 0l.036-.361c.053.003.119.01.186.009.087-.001.177.007.259-.014.175-.044.182-.112.023-.27l-.128.144-.227-.293.194-.24c-.027-.02-.059-.036-.078-.061-.073-.095-.054-.173.055-.188.096-.013.2-.001.243-.11.033-.085.047-.177.075-.285l.173.009c.01-.137-.081-.307.11-.386-.045-.054-.101-.093-.108-.14-.006-.034.047-.086.085-.116.04-.032.093-.047.141-.068.087-.039.131-.098.137-.201.008-.138.034-.272.142-.383.045-.046.04-.141.062-.23.146-.01.26-.067.321-.229.023-.062.143-.087.233-.136 0-.055.001-.121-.001-.187-.001-.016-.025-.038-.02-.046.128-.195.044-.459.218-.644.099-.106.163-.244.248-.363.226-.316.491-.611.672-.951.133-.249.277-.487.439-.713.129-.179.254-.352.296-.571.013-.068.002-.141.002-.201-.193-.011-.354-.031-.514-.026-.108.003-.215.043-.323.063-.155.03-.334-.037-.461.117-.015.018-.08-.004-.122-.008-.049-.004-.118-.031-.144-.009-.098.083-.21.068-.322.083-.118.015-.224.066-.354.008-.061-.027-.163.038-.255.064l.038.154-.213.27c-.193.071-.37.113-.523.198-.209.114-.418.103-.637.071-.059-.009-.121-.022-.18-.016-.17.018-.202.055-.235.284-.082-.05-.146-.103-.22-.132-.049-.019-.125-.028-.163-.002-.06.041-.031.089.017.148.081.1.019.257-.128.295a.287.287 0 0 0-.198.147l-.009.009c-.055.026-.112.049-.166.077-.242.124-.281.257-.116.546-.171-.069-.217.02-.264.131a.471.471 0 0 1-.159.171c-.279.206-.555.415-.846.602-.1.064-.127.126-.15.237.156-.07.294-.106.402-.185.292-.214.57-.447.854-.67.129-.102.262-.199.393-.298l-.005-.007zM16.088 37.87l.067-.141c-.044-.015-.09-.047-.13-.042-.071.01-.134.024-.177-.05l-.208-.056.01.174.202-.124-.018.385c.043.011.082.02.121.032.043.014.085.031.128.047.007-.052.017-.104.021-.157.002-.025-.006-.051-.01-.076l-.006.008zm11.501-20.144l-.125.18c.08.034.146.087.182.072.134-.058.311-.015.419-.158-.149-.188-.323-.089-.487-.069.134-.147-.013-.286.007-.441-.204.015-.162.149-.147.257-.264.024-.278.053-.157.245l.308-.086zM10.5 9.968l.148.194c.024-.196.121-.282.278-.316.072-.016.135-.071.201-.108l-.138.284c.075-.029.132-.039.134-.055.01-.075.004-.152.003-.229-.04-.075-.084-.148-.119-.225-.056-.123-.134-.147-.258-.056l.062.145-.157.255-.173-.027c.01.058.015.098.019.138-.076-.016-.153-.037-.214.047l.214-.047zm21.737 26.688l.183.061.039-.246-.176-.028-.048.221-.394-.307-.042.034.152.247c-.095.43-.076.483.192.554l.094-.536zm-5.13-16.39c-.033.069-.009.15.059.128.215-.072.297.064.425.191.091.09.22.263.404.141-.076-.314-.276-.466-.576-.481-.107-.005-.215.02-.322.032l.051-.184c-.233-.051-.33-.221-.401-.388l.063-.183c-.133-.001-.235-.013-.318.076a2.068 2.068 0 0 1-.521.394c-.164.09-.241.219-.177.426.179-.048.227.101.303.229l.23-.185c.014-.171-.161-.239-.051-.389.057.016.12.037.184.052.214.049.413.175.647.141zm-1.216 13.247l-.006-.006.112.283c.303-.073.495-.332.793-.36.013-.001.023-.025.036-.037.249-.247.571-.386.854-.583a2.11 2.11 0 0 0 .63-.676c.019-.033.015-.08.025-.135-.05 0-.092-.013-.112.002-.123.094-.254.182-.356.296-.097.108-.194.09-.307.061-.096-.024-.193-.044-.336-.076l.085.28c-.167.166-.461-.051-.609.203l.19.226c-.392-.194-.392-.194-.511-.026l.268.172-.274.213c-.101-.083-.18-.165-.275-.223-.137-.083-.227-.027-.261.141-.006.032-.012.081-.032.09-.211.098-.42.239-.641.264-.147.016-.24.025-.315.151-.024.04-.08.062-.122.092-.212.153-.471.217-.706.297-.352.12-.676.364-1.082.314-.118-.015-.241.016-.362.029-.091.01-.213.05-.181.142.056.158-.042.227-.143.319l.317.13c-.083.102-.251.091-.261.23.218.114.375-.041.559-.095.221-.064.357-.179.408-.408.234.245.388.233.594-.012.039-.047.112-.071.174-.091.039-.013.087.007.13.002.241-.025.313-.093.306-.337-.003-.131.053-.181.156-.236.22-.12.482-.145.681-.313a.236.236 0 0 1 .171-.054c.052.008.103.062.141.107.017.021.003.068.003.147l.278-.166c-.181-.203-.181-.203-.019-.357zm-11.636 4.951l.007.005c.052-.036.102-.074.156-.107.1-.062.245-.098.294-.187.093-.171.236-.278.379-.385a.646.646 0 0 0 .246-.358c.021-.073.037-.147.052-.204l.188-.032-.17-.34-.146.105-.118-.095c-.036.079-.083.143-.095.214-.023.13-.087.19-.215.164-.165-.034-.349.078-.5-.067-.014-.013-.051-.007-.076-.004-.171.019-.342.043-.513.058-.055.005-.111-.013-.189-.023.034-.088.045-.161.085-.211.04-.051.109-.079.141-.1 0-.109-.009-.193.003-.273.012-.081.045-.16.079-.275.218-.021.454-.081.681-.057a.759.759 0 0 0 .637-.217c.017-.015.02-.045.036-.083l-.176-.131c-.132.091-.25.132-.403.089-.102-.028-.22-.002-.331.009-.139.013-.314.096-.406.039-.186-.114-.351-.034-.521-.044-.079.191-.231.257-.387.176-.144-.075-.252-.074-.345.048-.074.097-.151.131-.265.122-.09-.007-.182-.001-.303-.001.118.127-.095.344.148.402l-.046.401c-.006.058.011.127-.015.173-.104.184-.062.348.073.524-.141.12-.088.259-.044.406a.565.565 0 0 1 .002.249c-.016.095-.034.168.044.26a.55.55 0 0 1 .1.551c.179-.052.192.097.234.191.162.016.244-.224.414-.098-.034.222-.034.222.157.301.101-.239.195-.297.409-.244.044.011.083.041.14.071l-.232.087c.062.19-.051.441.243.527.024-.069.03-.145.071-.193.047-.054.123-.083.186-.123-.035-.149-.035-.149.079-.341.203.175.34.04.481-.105.084-.086.192-.15.271-.24.143-.164.356-.265.456-.474-.297-.15-.347.163-.515.251-.171-.133-.283-.322-.481-.411zm9.93-6.471l.04.04c.067-.128.16-.203.31-.207.242-.005.455-.105.665-.246.086.077.214.157.274.016.059-.139.163-.175.271-.216.35-.132.698-.278 1.058-.37a.539.539 0 0 0 .367-.287c-.101-.103-.234-.179-.27-.286-.078-.233-.286-.322-.406-.501l-.063.034.083.326-.37.125v-.241c-.161-.077-.273-.024-.357.094-.127.179-.27.273-.452.128l-.324.198.033-.164-.509-.344c-.124.136-.314-.02-.487.028.038.114-.007.253.146.307.025.009.034.076.044.118.027.109.05.218.076.336l.178-.212a.229.229 0 0 1-.035.167c-.064.117-.097.234-.27.281-.139.038-.258.192-.284.374l.136.029c-.086.111-.172.211-.245.319-.029.043-.058.124-.038.153.043.061.112.097.204.049.065-.032.149-.032.225-.048zM10.239 8.402c-.259.221-.353.51-.391.831-.013.107.005.191.074.261.042.043.114.101.156.09.044-.011.081-.093.101-.151.023-.068.024-.143.034-.214.058.093.016.233.153.245.098.008.201-.038.294-.058v-.697c-.115-.082-.164-.309-.421-.307zm5.487 25.527c.233.048.367-.046.465-.357-.199.03-.389-.045-.563.105a.44.44 0 0 1-.253.112c-.151.002-.211.096-.283.195-.038.052-.079.113-.134.139-.207.097-.21.092-.161.304.054.234.104.274.395.3-.019-.176.076-.248.241-.229.022-.243.182-.394.293-.569zM27.61 19.475l-.292.323c.066.029.125.079.16.066.191-.07.33-.011.405.116l.597.108c-.095-.121-.159-.198-.218-.279-.166-.226-.453-.195-.652-.334zm-.681 14.953c-.17-.107-.296-.113-.403-.069-.303.126-.6.269-.896.411-.033.016-.05.066-.089.12.508-.038.905-.28 1.388-.462zm3.848 2.529c.046-.045.135-.094.131-.135-.014-.173.121-.218.22-.293.072-.054.145-.1.11-.209-.133 0-.263.006-.392-.002-.142-.008-.141-.013-.192-.18-.098.092-.195.183-.313.296l.425-.025c.041.146.033.289.011.548zM15.87 35.632l-.178-.532c-.336.178-.414.322-.306.604l.484-.072zm6.333.123c-.146-.038-.221-.227-.407-.098.028.066.04.164.095.209.068.056.17.085.261.095.107.012.219-.125.211-.24-.003-.05-.027-.099-.057-.204l-.103.238zm10.651 1.304c-.028.047-.067.088-.074.133-.005.029.031.084.06.094.088.03.224-.086.206-.177a1.535 1.535 0 0 0-.089-.279c-.063-.149-.132-.153-.292-.02l.189.249zM22.78 35.468c.341.092.576-.111.817-.3a2.272 2.272 0 0 0-.817.3zM7.588 15.633c.187.173-.056.331.085.469.084-.09.165-.165.232-.251.066-.085.119-.18.178-.271l-.034-.047c-.13.027-.258.055-.461.1zm27.404 3.775c-.057-.052-.106-.099-.156-.143-.16-.143-.196-.132-.31.12l.337.251.129-.228zm-.538-1.367c-.059.231-.059.231.098.5l.331-.047-.429-.453zm-2.687 19.474l.057-.012c.029-.194.062-.388-.103-.55-.052.059-.107.098-.125.149a.276.276 0 0 0 .002.186c.022.048.095.07.133.114.024.027.025.074.036.113zm.026-2.004c-.238-.029-.264.002-.201.228.009.031-.006.069.004.099.01.029.037.071.058.072.036.001.088-.015.105-.043.073-.109.113-.228.034-.356zm-.548 6.032c.155-.104.212-.205.172-.331-.013-.041-.064-.102-.094-.1-.049.003-.12.041-.137.082-.049.122-.059.249.059.349zm-16.295-6.41c.17-.032.294-.055.34-.208-.092-.083-.197-.17-.295-.1-.052.037-.03.179-.045.308zm7.869-2.291l.004-.077-.255-.062-.099.36c.171.031.19-.091.194-.202l.156-.019zm1.241-10.388c.153.045.269.037.325-.08.039-.08-.005-.166-.112-.215l-.213.295zm7.14 13.489l.167.158c.057-.1.19-.148.111-.303-.109.003-.229-.036-.278.145zM7.195 16.512h.144c-.025-.156.18-.166.193-.299-.211-.085-.226-.072-.337.299zM31.4 36.755c-.1-.012-.152-.029-.2-.022-.051.008-.098.039-.147.06.02.045.03.111.064.129a.194.194 0 0 0 .16.002c.045-.024.068-.088.123-.169zm-6.178-14.951c.045-.192-.057-.248-.2-.305-.021.161.028.25.2.305zm2.973-4.5c.13.26.13.26.282.243-.091-.089-.034-.301-.282-.243zM9.629 10.339l.041.29h.206c-.042-.126-.051-.249-.247-.29zm5.986 15.603c-.054.146.024.179.111.205.085.025.165.033.211-.092l-.322-.113zm15.216 11.895a29.406 29.406 0 0 1-.253-.029l.05.35.203-.321zM8.719 26.347l.206.058.07-.267-.042-.023-.234.232zm14.279 6.357l.014.236.282-.191-.296-.045zm9.313 4.554c-.093.037-.218.027-.26.174.152.026.233-.03.26-.174zM10.964 4.269l-.181-.227-.087.302.268-.075zm1.728.094l.035.038c.041-.023.119-.061.117-.067-.031-.077.15-.194-.061-.245l-.091.274zm23.051 15.373c.128-.064.233-.143.131-.346l-.131.346zm-8.798-.211c.106.177.225.068.391.078-.151-.121-.258-.105-.391-.078zm4.046 17.71a3.773 3.773 0 0 1-.032-.062l-.302.101.149.155.185-.194zM13.15 24.338c-.03-.066-.039-.109-.065-.136a.376.376 0 0 0-.119-.071c-.007-.003-.048.038-.045.051.012.046.026.103.06.129.032.025.09.017.169.027zm8.531 8.351l-.125.111.132.134c.034-.034.099-.071.096-.1-.006-.046-.058-.086-.103-.145zm2.985-.175c-.152-.16-.265-.016-.395-.031.063.102.063.102.395.031zm6.888 3.992c0-.112-.05-.171-.147-.178-.018-.001-.06.046-.058.067.01.11.084.133.205.111zM10.643 3.521l-.274-.193c.015.194.015.194.274.193zM25.39 34.053c-.171.031-.293.051-.373.202.165.012.273-.035.373-.202zM3.358 19.88l.059-.203a48.547 48.547 0 0 0-.325-.069l.266.272zm7.683-8.986l-.073.016c.007.096-.038.208.128.294l-.055-.31zm1.413-6.836c-.114.041-.229.006-.258.169.123.004.209-.012.258-.169zm6.944 15.48l.279-.086c-.137-.131-.137-.131-.279.086zm5.218 2.824c.014-.128-.037-.186-.169-.156l.169.156zM14.58 30.964c-.047-.128-.115-.159-.21-.11-.022.012-.045.068-.035.088.056.113.14.062.245.022zm-5.506-1.329c-.044.117-.044.117.075.172l-.075-.172zm21.507 7.949c.162.024.162.024.22-.092l-.22.092zM9.313 26.976c-.054-.03-.087-.061-.121-.063-.019-.001-.06.053-.055.073.009.032.047.057.072.085l.104-.095zm29.169-4.119c-.005-.173-.005-.173-.166-.204l.166.204zm-13.561-4.575c-.076-.152-.137-.156-.223-.056l.223.056zm2.96-.957l.016.07c.08.04.145.035.203-.111l-.219.041zM23.77 32.6l.246.114.021-.198-.267.084zM8.7 14.267l.165-.224-.048-.037c-.014.095-.222.027-.117.261zm12.763 18.151c-.051-.153-.051-.153-.187-.141l.187.141zm-5.184 3.405l.047.041c.035-.045.072-.089.102-.137.007-.011-.015-.039-.035-.088l-.114.184zM12.613 6.495c.107.093.159.065.183-.044.004-.016-.018-.038-.034-.07l-.149.114zm3.257 31.71c-.059-.032-.089-.057-.124-.065-.014-.003-.036.028-.054.043.024.028.044.065.075.081.014.007.049-.027.103-.059zm16.174-2.019c.12.003.177-.052.255-.142-.136-.008-.219.003-.255.142zm1.273 1.215c-.074-.034-.123-.059-.174-.077-.005-.002-.041.045-.035.059.034.088.097.079.209.018zm-22.493-26.35l-.057-.028c-.019.015-.041.026-.056.045-.039.048-.005.118.042.094.033-.019.048-.073.071-.111zm20.35 26.438c-.109.134-.109.134 0 .189v-.189zM5.946 21.349l.078-.029-.068-.13c-.022.012-.063.03-.062.035.013.043.033.083.052.124zm18.84.788l.044.05.09-.105-.032-.031-.102.086zm-19.682-.789c-.005.006-.016.014-.015.019.013.049.028.097.043.145.013-.009.038-.018.037-.026a.514.514 0 0 0-.022-.117c-.004-.01-.028-.014-.043-.021zm4.178 5.959c.022-.024.049-.04.05-.058.001-.017-.025-.035-.039-.053l-.064.055.053.056zm-.728.25c-.073-.024-.136-.027-.159.066-.003.012.011.04.022.044.089.024.119-.033.137-.11zm15.958 2.36l-.006.071.165.007.006-.049-.165-.029zm13.647-7.3l-.052.049.104.095.035-.033-.087-.111zM19.502 37.709c.076.08.076.08.18.018l-.18-.018zm-10.25.719l.017.033.138-.069-.017-.034-.138.07zm.349-28.405c.029-.05.051-.075.056-.102.002-.013-.034-.048-.044-.045-.025.008-.061.029-.064.05-.004.021.024.049.052.097zM31.78 38.652l.053.048.075-.114-.04-.03a7.67 7.67 0 0 0-.088.096zm-18.508 1.509c-.028.038-.048.061-.061.088-.004.007.02.038.022.037a.312.312 0 0 0 .079-.047c.004-.005-.019-.039-.04-.078zm17.545.083l-.005-.057c-.045.003-.089.005-.134.011-.002 0-.001.044-.001.044.048.002.094.002.14.002zm.867-5.143l.05.008.038-.138-.042-.012-.046.142zM10.58 10.883c-.035-.021-.063-.046-.072-.041-.027.016-.046.044-.068.068.024.016.05.048.07.044.023-.004.041-.039.07-.071zM6.486 21.654c-.036-.158-.036-.158-.157-.135l.157.135zm4.215-11.291l.064.065.102-.125-.03-.026a6.256 6.256 0 0 0-.136.086zm4.81 15.772l-.036-.015-.06.134.041.018.055-.137zm15.836 12.311l.05-.024c-.014-.015-.025-.034-.042-.043-.008-.004-.026.011-.039.018l.031.049zm-16.19-.268l.032.031.084-.093-.031-.029a3.657 3.657 0 0 1-.085.091zM29.254 24.88l.066-.025-.041-.125c-.022.009-.064.023-.063.028.008.042.024.082.038.122zM16.168 35.875l-.031-.029-.073.078.031.03.073-.079zm3.369.994c-.023-.026-.035-.046-.052-.056-.007-.004-.038.013-.038.019.001.021.006.048.021.058.01.008.037-.01.069-.021zM9.97 10.003l-.037-.06c-.014.015-.042.032-.04.044.004.02.026.037.041.056l.036-.04zm-.165-.4l-.033.027.09.11.034-.028-.091-.109zM5.468 21.446l.036.009.029-.105-.041-.01-.024.106zm25.408 14.297l-.019.03.089.059.02-.032-.09-.057zm-17.675 4.23c-.011-.01-.021-.026-.033-.027-.012-.001-.025.013-.038.02l.045.04.026-.033zm-1.178 2.409c-.023.036-.046.057-.043.072.004.02.026.046.045.051.015.004.037-.02.056-.032l-.058-.091zm4.227 1.142c-.017-.02-.032-.04-.051-.055-.004-.003-.025.015-.038.023.015.018.028.038.046.052.004.005.024-.01.043-.02zm13.568 3.4c-.019-.014-.04-.032-.042-.03-.016.016-.028.035-.042.053.012.009.031.028.036.025.018-.012.031-.031.048-.048zm-2.331-12.62l.058.018.036-.101c-.02-.006-.056-.02-.057-.017-.015.032-.025.066-.037.1zM7.756 19.333c.017-.025.04-.043.038-.058-.002-.019-.025-.036-.039-.054-.016.015-.044.03-.044.043.002.02.024.039.045.069zm1.059-5.393l.033-.053-.099-.04c-.004.015-.016.039-.011.044.024.019.051.033.077.049zm.444 13.664l-.05.018.053.081.03-.017-.033-.082zm7.116 9.97c-.029-.017-.047-.03-.067-.037-.003-.001-.025.028-.022.036.008.021.026.039.04.058l.049-.057zM27.88 17.51c-.019-.01-.039-.023-.061-.029-.005-.002-.026.024-.024.028.01.019.026.035.04.052l.045-.051zM10.615 37.738l-.017-.035c-.017.002-.042-.002-.048.007-.012.019-.014.044-.019.067l.084-.039zM9.51 27.799c-.038-.01-.063-.025-.076-.018-.015.008-.021.035-.031.054.014.004.031.015.043.01.018-.005.033-.022.064-.046zM7.283 18.26l-.044-.047c-.006.013-.016.027-.015.04.001.013.015.025.023.037l.036-.03zm2.629 20.283l-.03-.042c-.016.014-.035.027-.047.044-.003.004.014.023.021.035a1.8 1.8 0 0 1 .056-.037zm6.209-2.263c.01-.02.024-.036.02-.043a.056.056 0 0 0-.037-.027c-.01-.002-.022.014-.033.023l.05.047zm19.887-.133c.079 0 .12.012.139-.003.025-.02.032-.061.047-.093l-.034-.024-.152.12zm9.172-4.716c-.111-.234-.092-.442.117-.616.031-.025.045-.07.07-.111-.07-.052-.131-.074-.194.015a1.046 1.046 0 0 1-.156.17c-.032.028-.08.039-.136.041.077-.146.055-.343.247-.417.014-.005.014-.047.021-.071.058.052.113.106.173.153.014.011.045.002.09.002a55.945 55.945 0 0 1-.072-.193l-.189.042-.313.017.137-.172c-.158-.021-.244.044-.317.152.009.024.021.046.025.07.009.053.038.123.015.155-.04.057-.108.07-.184.022a.553.553 0 0 1-.273-.499 1.23 1.23 0 0 0-.028-.304c-.012-.046-.078-.079-.124-.122.036-.02.095-.034.102-.061.028-.109.045-.218.086-.327.03-.079-.06-.203-.105-.331l-.226.163.152.13-.057.172c-.09.04-.243-.05-.247-.149-.005-.1-.062-.229.097-.288.071-.026.036-.083-.005-.123.182-.052.185-.059.115-.225.059.002.142.047.132-.095l-.126.1c-.097.05-.151.118-.102.232-.167-.132-.033-.251.015-.374.068-.07.068-.07-.015-.125l.022.132-.215.067c.061-.124.099-.236.223-.314.095-.059.103-.222.09-.353-.176.01-.176.01-.16.242-.18.061-.095-.11-.154-.177-.143.015-.314.045-.407-.118-.045-.078-.045-.182-.065-.275l.057-.018.117.248.125-.209.118-.037-.026-.048-.085.092c-.042-.028-.108-.046-.123-.085-.052-.131-.151-.185-.268-.2l-.064-.692.122-.103-.295-.094v-.183l-.345-.104.269-.211-.161-.116c.009-.012.017-.032.029-.035.081-.02.146-.02.194.076.063.128.148.245.243.398.021-.071.042-.11.041-.148a2.821 2.821 0 0 1 .027-.39c.004-.014-.007-.033-.009-.038l-.657-.305-.302.245c-.016-.064-.035-.118-.03-.12.161-.078.179-.247.25-.382l-.007.005c.198.057.268.009.244-.173-.012-.092-.032-.183-.051-.295-.146.013-.304.035-.433-.103-.036-.039-.141-.012-.216-.016-.03-.044-.06-.117-.113-.164-.142-.126-.146-.122.012-.302l.049.139c.016-.008.038-.011.044-.022.04-.084.091-.167.11-.256.049-.228.03-.261-.194-.292-.1-.014-.16-.052-.2-.137.025-.003.056.003.075-.01.044-.027.082-.063.122-.095-.048-.023-.094-.051-.144-.067-.018-.006-.044.016-.077.03l.031.149-.194.09.01.021c-.039-.057-.071-.122-.119-.17-.04-.041-.099-.063-.145-.091.136-.541.089-.51.47-.548.024.045.058.094.078.148.031.082.077.133.171.135.166.003.265.17.434.182.032.002.07.112.082.176.014.074.003.153.003.24.134.02.241-.197.378-.032.085.083-.16.173.018.272l.097-.242c.145.15.272.284.498.224.057-.015.184.06.205.119.086.247.266.419.431.605.028.031.043.074.045.077.095.033.204.04.22.082.102.267.378.401.489.653.108.245.202.497.294.749.011.03-.025.078-.044.128.064.044.122.109.192.127.15.039.173.149.149.262a.62.62 0 0 0 .152.585l-.118.143c.014.017.023.038.035.04.137.023.175.104.183.24.016.251-.094.472-.13.71-.008.051-.019.1-.029.154.136.069.297.093.351.29l-.241.11.183.222a9.19 9.19 0 0 0-.143.112c.088.141.15.297.061.451-.138.24-.136.45.042.67.116.144.185.315.026.517.1.007.165.021.228.014.17-.018.259.065.303.22.05.175.137.302.333.362.087.027.14.163.228.275.157-.014.265.097.347.253.024.047.077.081.121.114.077.057.158.108.225.182.136.025.288.016.368.178.014.027.055.057.084.057.246 0 .42.183.64.249.124.037.256.07.36.141.083.056.128.167.214.287-.015-.001.03.018.05.003.323-.252.661-.164.988-.03.199.082.387.143.605.121.147-.015.298.019.445.006.169-.015.336-.057.515-.089.05.142.009.249-.127.291-.245.076-.45.268-.727.248a.04.04 0 0 0-.025.008c-.291.205-.602.122-.913.069-.075-.013-.155-.002-.244-.002l-.13-.123-.406.143-.108-.228-.343.063-.203-.285c-.012.075-.011.106-.023.13-.048.094-.209.108-.218.02-.029-.262-.302-.196-.423-.336-.028-.032-.171.034-.254.054.021-.103.021-.103.189-.172l.047-.281a18.777 18.777 0 0 1-.205-.066l.006.007-.018-.318-.058-.003-.088.261-.144-.203-.105.163c-.077-.074-.077-.074-.159.029l.166-.037.024.197c-.271.048-.276.043-.402-.149-.036-.056-.093-.097-.136-.149-.036-.043-.081-.088-.095-.139-.065-.234-.215-.324-.49-.256l-.258-.366c-.134.003-.305-.007-.368-.212a.082.082 0 0 0-.031-.038 25.599 25.599 0 0 0-.384-.256c-.021-.014-.05-.015-.075-.022.025.001.055.011.072 0 .019-.012.026-.044.038-.067-.023 0-.05-.009-.066.001-.019.013-.028.04-.042.061zm-2.363-7.101l.184-.023c-.093.088-.113.199-.116.344.126-.039.243-.045.253-.197.007-.102-.052-.138-.145-.142l-.043-.214a33.67 33.67 0 0 1-.127.239l-.137.059.024.041.107-.107zm1.63 5.503c-.026-.026-.066-.078-.077-.073-.061.031-.091.078-.012.146l.094-.082c.029.097.007.181-.037.274-.029.06-.082.169.05.211.146-.243.144-.303-.018-.476zm.222-3.754c.142-.121.175-.308.069-.425-.065-.072-.133-.071-.185 0l.12.429c-.067-.016-.137-.074-.205.016.108.027.108.027.201-.02zm-1.148.614l.065.004.087-.345a50.104 50.104 0 0 0-.217-.297c-.098.144-.006.208.05.306.05.085.014.219.015.332zm-1.038-2.771l-.063-.032-.224.15.109.274.054-.01.124-.382zm2.045 5.357c.139.017.279.038.419.047.023.002.05-.047.083-.081-.433-.145-.433-.145-.502.034zm-.72-1.775l.018.057c.073-.019.165-.018.214-.064.063-.059.043-.15-.021-.246l-.211.253zm-.457-1.917c.106.161.227.221.319.15l-.052-.15h-.267zm.353-.235l.039.262c.121.01.213.007.225-.146l-.264-.116zm-.724-.275c-.14.099-.152.214-.19.343l.19.012v-.355zm2.909 6.381c-.071-.037-.116-.078-.161-.077-.03 0-.058.061-.087.095.042.034.081.082.129.097.02.006.061-.057.119-.115zm-2.243-7.146c-.022-.077-.028-.152-.047-.155-.076-.013-.166-.032-.23.091l.277.064zm.874 4.556c.129-.131.119-.276-.037-.377l.037.377zm.206-.342c.034-.049.066-.076.072-.109.003-.017-.04-.042-.062-.063-.025.028-.058.052-.07.085-.006.015.029.045.06.087zm-1.115-4.069c.08.236.08.236.202.189l-.202-.189zm-.082 2.946l.048-.063c-.029-.072-.051-.154-.212-.075l.164.138zm1.285-.258l.068.05c.029-.039.06-.077.083-.12.002-.004-.045-.035-.069-.054a5.316 5.316 0 0 0-.082.124zm-1.933-2.196c.031-.034.063-.06.059-.066-.019-.033-.047-.061-.071-.09-.018.016-.053.038-.05.047.011.033.035.064.062.109zm1.817 2.357c.025-.052.053-.083.047-.105-.007-.026-.041-.058-.067-.06-.022-.002-.047.033-.071.052l.091.113zm-2.383-3.783c-.12.141-.136.2-.058.217l.058-.217zm3.427 7.405l-.046-.015-.052.132.057.019.041-.136zm-1.694-5.757l.027.058.153-.091-.024-.044-.156.077zm.596 1.244c-.008-.054-.01-.075-.015-.094a2.802 2.802 0 0 0-.026-.098l-.053.049c0 .023-.008.051.002.067.015.023.044.037.092.076zm-.416-.332a.89.89 0 0 0-.032.021l.063.101c.011-.011.034-.028.032-.031-.018-.031-.041-.061-.063-.091zm-2.651-2.748c-.035-.02-.053-.036-.074-.04-.012-.002-.027.013-.041.021.013.017.024.044.041.05.015.004.038-.015.074-.031zm3.749 6.449l-.05-.032-.056.093c.013.008.035.024.038.021.025-.025.046-.054.068-.082zm-1.218-4.025l-.003.035.106.01.002-.038a3.264 3.264 0 0 0-.105-.007zm.225 1.513c-.04-.02-.064-.042-.082-.038-.015.003-.028.036-.033.058-.002.009.022.034.03.032.019-.004.035-.019.085-.052zm.167-.824c.021.042.027.065.034.065.027.002.054-.004.081-.007l-.115-.058zm-1.099.026c.013-.03.025-.049.028-.069.001-.006-.029-.025-.04-.021-.019.006-.035.025-.052.038l.064.052zm1.227 1.503l-.034-.028c-.008.012-.023.026-.021.037.001.011.02.019.031.028l.024-.037zm.659.282c-.011.009-.03.017-.031.027-.002.012.013.025.02.038.011-.009.03-.017.032-.027.001-.011-.013-.025-.021-.038z"/>
    <path d="M14.401 49.063c-.119.182-.237.362-.245.594-.002.058-.053.127-.101.17-.221.2-.263.429-.112.71l-.146.116c.029.17.1.353-.08.501.086.11.219.216.118.345-.046.059-.18.05-.3.078.203.125.231.287.129.482-.021.041-.013.101-.01.151.013.173.038.345.043.518.005.147-.052.255-.194.341-.108.066-.174.2-.265.312-.017-.038-.063-.099-.073-.165-.031-.208-.049-.417-.069-.626-.006-.068.018-.146-.099-.167-.075.116-.075.309-.305.339-.021-.2-.036-.396-.063-.589-.038-.275-.067-.553-.135-.821-.035-.136-.146-.254-.235-.4.103-.198.242-.42.148-.683-.023-.064-.099-.109-.172-.186v-.285c.214.009.433.006.572-.211.037.079.049.16.095.19.061.04.148.042.246.065l-.184.513c.295.09.328.079.494-.138.12-.156.281-.286.26-.517-.005-.049.06-.103.086-.158.033-.07.065-.142.085-.217.017-.065 0-.182.029-.193.115-.043.185-.18.328-.157l.158.095-.003-.007zM5.515 2.493c.094.096.179.188.269.274a.182.182 0 0 0 .102.05.466.466 0 0 1 .363.216c.109.153.217.31.4.4.08.039.152.127.192.21.076.156.176.209.313.13l.341.527c.009.015.027.03.027.044-.001.086-.011.172-.008.257.003.081.144.143.027.25-.022.02.028.118.046.186l-.473.267.233.107-.269.165-.405-.092c-.189-.206-.404-.429-.605-.663a1.608 1.608 0 0 1-.202-.327 2.483 2.483 0 0 0-.403-.596c-.128-.134-.223-.307-.16-.507l-.339-.307.075-.343c-.199.028-.173-.175-.249-.284-.014-.021.032-.122.057-.125.06-.007.177.022.177.038.004.186.201.173.267.307l.224-.184zm-2.1 6.348l-.107-.45c.23-.138.217-.421.302-.684a8.076 8.076 0 0 0-.22-.04l.07-.121-.191-.097.078-.182.218.101-.105.087c.366 0 .285.379.489.543.205-.19.388-.423.729-.41l-.179.354c.117.252.21.498.102.771a.169.169 0 0 0 .001.097c.036.139.109.278.109.417.001.334.208.478.473.584.088.036.18.062.272.094-.159.302-.206.323-.49.224-.039.207.147.248.25.332l-.064.37c-.168.032-.214-.161-.351-.227-.175.407-.45.19-.706.114-.041-.198-.041-.198.044-.306-.06-.075-.132-.139-.172-.218-.056-.11-.088-.208-.247-.226-.121-.014-.31-.417-.27-.539.041-.124.016-.215-.06-.314-.074-.095-.123-.205.032-.281l.087.076a.8.8 0 0 0 .02-.042l-.114-.027zm.618-.162l-.418-.026c.042.238.113.323.257.313.138-.01.193-.092.161-.287zm-.01.689l.199-.158c-.108-.102-.182-.205-.324-.166-.026.007-.06.047-.061.073-.006.129.065.207.186.251zm-.403.052l.058-.016-.046-.142-.047.013.035.145zm21.294 26.174c-.129.126-.213.21-.355.162-.094-.032-.15 0-.223.075-.148.15-.295.294-.549.298-.176.003-.351.126-.526.193-.056.021-.113.038-.176.059-.085-.123-.058-.195.069-.247.32-.13.635-.271.957-.395.201-.078.409-.136.617-.194.04-.01.092.023.186.049zm15.172-12.381a74.35 74.35 0 0 1-.049-.26l-.194-.062c.126-.159.278-.166.451-.164l.103.293.571-.139.031.141-.246.167c-.079-.187-.201.051-.326-.001-.097-.04-.231.013-.349.025h.008z"/>
    <path d="M40.086 23.213l-.009.002c.013.102-.175.173-.032.306l.176-.042c.038.165-.059.228-.178.286l-.388-.368.064-.286-.01.024c.149-.085.264-.01.377.078zm-11.239 8.545l.009-.009c.048 0 .128-.017.138.003.044.081.111.189.087.259-.049.145-.084.33-.294.352l.007.006c-.008-.033-.009-.071-.027-.098-.135-.201-.135-.2.017-.399.027-.035.043-.076.063-.114z"/>
    <path d="M39.709 23.136a.133.133 0 0 1 .01-.024c-.032.011-.088.039-.094.031-.104-.14-.304-.097-.432-.238.067-.04.126-.102.192-.109a.43.43 0 0 1 .24.05c.114.061.141.168.084.29zM8.014 18.389l.104.181.138-.058.128.367a.627.627 0 0 1-.452-.319c-.041-.074-.017-.133.082-.171zm33.521 5.323l-.01-.021c-.02.146.004.275.171.355l-.221.164c-.029-.112-.049-.198-.074-.283-.026-.089-.056-.177-.089-.279.09-.047.154.02.223.064zM12.694 52.944c.089.314.08.389-.064.556a.921.921 0 0 1 .064-.556zm9.96-16.634c0 .184-.058.262-.195.242-.043-.006-.089-.064-.108-.109-.007-.017.051-.08.09-.095.059-.024.128-.024.213-.038zm5.234 14.166l.193.34-.047.045-.352-.263-.007.006.221-.121-.008-.007zm19.906-17.547l-.034.229-.352.112c.1-.194.218-.297.392-.334l-.006-.007zM9.891.825L9.85.999c-.113-.13-.217-.235-.226-.418l.267.244zm30.68 23.135l-.096.047-.17-.235c.19-.038.19-.038.266.188zm-11.052-6.69c-.135.106-.224.042-.323-.013.128-.103.128-.103.323.013zM18.878 38.802c.19-.046.19-.046.3-.245l.11.313-.408-.069-.002.001zM33.41 17.374c-.194-.055-.196-.064-.058-.307.106.096.037.214.048.317l.01-.01zm7.565 5.978l.152.164-.192.158-.016-.31.056-.012zm-11.352 9.615c.087-.091.12-.246.312-.213l-.27.247-.042-.034zM3.498 6.868v.307l-.16-.049.16-.258zm38.968 18.341h-.348c.007-.071.007-.071.285-.131.019.046.037.091.057.136l.006-.005zM7.699 18.803l-.141.207c-.056-.139-.056-.139.141-.207zM3.117 20.48l.21.115c-.174.048-.174.048-.21-.115zm23.814 18.218l-.015.202-.046.018c-.027-.041-.068-.08-.074-.124-.003-.021.066-.05.135-.096zm6.032-21.312l.221.127c-.164.053-.164.053-.221-.127zM9.288 24.523l.216.059c-.049.054-.096.119-.107.113-.053-.027-.096-.073-.142-.112l.033-.06zM27.756 51.65c-.141.094-.176.035-.192-.128l.192.128zM8.763 25.447h-.281c.174-.158.174-.158.275.004l.006-.004zM4.412 11.111l.104-.201c.127.147.023.183-.04.233l-.064-.032zm.101-3.828l-.027.241c-.124-.103-.067-.174-.039-.244l.066.003zm23.169 43.315l-.092-.21c.154.039.1.132.086.215l.006-.005z"/>
    <path d="M8.757 25.451c.095-.008.195-.028.261.101-.142.047-.178-.073-.254-.106l-.007.005zm-4.223-4.127l-.137-.085.024-.045.148.066-.035.064zM27.391 39.24l-.021-.156.05-.011.04.156-.069.011zm5.917-21.36c-.041.007-.083.016-.124.019-.004 0-.011-.041-.016-.062l.127-.024.013.067zm8.958 6.898l-.013.119-.042-.001-.007-.123.062.005zm-1.483-1.072c-.031-.015-.065-.027-.091-.049-.007-.006.011-.041.018-.063l.099.055-.026.057zM7.009 21.017c-.019-.011-.043-.019-.043-.027 0-.022.009-.045.014-.067.018.009.049.017.05.029.003.02-.012.042-.021.065zm1.612 3.794c-.007-.014-.022-.03-.019-.042.003-.013.022-.022.034-.033l.03.057a.527.527 0 0 1-.045.018zm33.231-.008a5.684 5.684 0 0 1-.043.052l-.046-.042.053-.05c.009.012.02.023.036.04zM8.436 18.244c.001.026.007.049.002.07-.003.01-.026.014-.04.021-.004-.022-.012-.044-.01-.065.001-.009.025-.014.048-.026zm-3.461-6.92l-.025.038c-.011-.009-.031-.018-.032-.028-.001-.012.014-.025.023-.038l.034.028zm28.435 6.05l-.011.01.208.096c-.075-.016-.19.041-.197-.106zM4.076 20.893l.031.028c-.013.006-.025.015-.038.018-.004.001-.017-.013-.017-.014.007-.012.017-.023.024-.032zm41.729 7.394l.049.025c-.013.019-.024.039-.04.055-.003.003-.037-.016-.036-.02.006-.02.018-.04.027-.06zM19.498 38.506c-.008.011-.016.028-.026.03-.01.001-.023-.013-.034-.021.008-.011.016-.028.026-.03.011-.001.023.013.034.021zm-6.122-1.704c-.04-.036-.093-.066-.116-.111a.572.572 0 0 1-.061-.214c-.002-.024.06-.076.09-.074.045.002.117.033.125.066.025.095.025.197.035.296l-.073.037zm.634 2.145l-.179.444-.059-.402c.013-.005.048-.024.085-.032.041-.008.084-.006.153-.01zm-.631.355c-.145-.066-.145-.066-.076-.237l.076.237zm.162-.233c-.017-.03-.039-.053-.034-.067.008-.023.032-.041.049-.061.01.02.028.041.028.061-.001.019-.022.037-.043.067zm.714-.605l-.121.143c-.032-.131.063-.119.127-.139l-.006-.004zm.805.275l-.018.042c-.013-.008-.033-.014-.036-.025-.003-.012.01-.028.016-.042a.826.826 0 0 0 .038.025zm9.393-7.557l-.019.04-.052-.033c.011-.01.022-.026.034-.027.012-.002.025.012.037.02zm1.438 2.331c.072-.045.112-.183.255-.086-.077.105-.17.087-.261.081l.006.005zm-2.098 1.096l-.132.052-.017-.037.135-.054.014.039zm-7.699 3.254c-.024.009-.052.03-.07.023-.023-.009-.036-.041-.054-.063.023-.003.049-.016.067-.008.021.009.034.036.051.055l.006-.007z"/>
  </g>
</svg>
